<svg width="363" height="50" viewBox="0 0 363 50" fill="none" xmlns="http://www.w3.org/2000/svg">
<path d="M0 8C0 3.58172 3.58172 0 8 0H355C359.418 0 363 3.58172 363 8V42C363 46.4183 359.418 50 355 50H8C3.58173 50 0 46.4183 0 42V8Z" fill="#3485FF"/>
<path d="M123 17.5H126.333C126.775 17.5 127.199 17.6756 127.512 17.9882C127.824 18.3007 128 18.7246 128 19.1667V30.8333C128 31.2754 127.824 31.6993 127.512 32.0118C127.199 32.3244 126.775 32.5 126.333 32.5H123" stroke="#FAFAFA" stroke-width="2" stroke-linecap="round" stroke-linejoin="round"/>
<path d="M118.833 29.1666L123 25L118.833 20.8333" stroke="#FAFAFA" stroke-width="2" stroke-linecap="round" stroke-linejoin="round"/>
<path d="M123 25H113" stroke="#FAFAFA" stroke-width="2" stroke-linecap="round" stroke-linejoin="round"/>
<path d="M143.524 21.352V24.616H147.364V26.104H143.524V29.512H147.844V31H141.7V19.864H147.844V21.352H143.524ZM154.539 22.04C155.232 22.04 155.851 22.184 156.395 22.472C156.949 22.76 157.381 23.1867 157.691 23.752C158 24.3173 158.155 25 158.155 25.8V31H156.347V26.072C156.347 25.2827 156.149 24.68 155.755 24.264C155.36 23.8373 154.821 23.624 154.139 23.624C153.456 23.624 152.912 23.8373 152.507 24.264C152.112 24.68 151.915 25.2827 151.915 26.072V31H150.091V22.184H151.915V23.192C152.213 22.8293 152.592 22.5467 153.051 22.344C153.52 22.1413 154.016 22.04 154.539 22.04ZM162.609 23.672V28.552C162.609 28.8827 162.684 29.1227 162.833 29.272C162.993 29.4107 163.26 29.48 163.633 29.48H164.753V31H163.313C162.492 31 161.863 30.808 161.425 30.424C160.988 30.04 160.769 29.416 160.769 28.552V23.672H159.729V22.184H160.769V19.992H162.609V22.184H164.753V23.672H162.609ZM168.258 23.464C168.525 23.016 168.877 22.6693 169.314 22.424C169.762 22.168 170.29 22.04 170.898 22.04V23.928H170.434C169.72 23.928 169.176 24.1093 168.802 24.472C168.44 24.8347 168.258 25.464 168.258 26.36V31H166.434V22.184H168.258V23.464ZM171.967 26.552C171.967 25.6667 172.148 24.8827 172.511 24.2C172.884 23.5173 173.386 22.9893 174.015 22.616C174.655 22.232 175.359 22.04 176.127 22.04C176.82 22.04 177.423 22.1787 177.935 22.456C178.458 22.7227 178.874 23.0587 179.183 23.464V22.184H181.023V31H179.183V29.688C178.874 30.104 178.452 30.4507 177.919 30.728C177.386 31.0053 176.778 31.144 176.095 31.144C175.338 31.144 174.644 30.952 174.015 30.568C173.386 30.1733 172.884 29.6293 172.511 28.936C172.148 28.232 171.967 27.4373 171.967 26.552ZM179.183 26.584C179.183 25.976 179.055 25.448 178.799 25C178.554 24.552 178.228 24.2107 177.823 23.976C177.418 23.7413 176.98 23.624 176.511 23.624C176.042 23.624 175.604 23.7413 175.199 23.976C174.794 24.2 174.463 24.536 174.207 24.984C173.962 25.4213 173.839 25.944 173.839 26.552C173.839 27.16 173.962 27.6933 174.207 28.152C174.463 28.6107 174.794 28.9627 175.199 29.208C175.615 29.4427 176.052 29.56 176.511 29.56C176.98 29.56 177.418 29.4427 177.823 29.208C178.228 28.9733 178.554 28.632 178.799 28.184C179.055 27.7253 179.183 27.192 179.183 26.584ZM185.243 23.464C185.509 23.016 185.861 22.6693 186.299 22.424C186.747 22.168 187.275 22.04 187.883 22.04V23.928H187.419C186.704 23.928 186.16 24.1093 185.787 24.472C185.424 24.8347 185.243 25.464 185.243 26.36V31H183.419V22.184H185.243V23.464ZM198.164 22.04C198.857 22.04 199.476 22.184 200.02 22.472C200.574 22.76 201.006 23.1867 201.316 23.752C201.625 24.3173 201.78 25 201.78 25.8V31H199.972V26.072C199.972 25.2827 199.774 24.68 199.38 24.264C198.985 23.8373 198.446 23.624 197.764 23.624C197.081 23.624 196.537 23.8373 196.132 24.264C195.737 24.68 195.54 25.2827 195.54 26.072V31H193.716V22.184H195.54V23.192C195.838 22.8293 196.217 22.5467 196.676 22.344C197.145 22.1413 197.641 22.04 198.164 22.04ZM203.498 26.552C203.498 25.6667 203.68 24.8827 204.042 24.2C204.416 23.5173 204.917 22.9893 205.546 22.616C206.186 22.232 206.89 22.04 207.658 22.04C208.352 22.04 208.954 22.1787 209.466 22.456C209.989 22.7227 210.405 23.0587 210.714 23.464V22.184H212.554V31H210.714V29.688C210.405 30.104 209.984 30.4507 209.45 30.728C208.917 31.0053 208.309 31.144 207.626 31.144C206.869 31.144 206.176 30.952 205.546 30.568C204.917 30.1733 204.416 29.6293 204.042 28.936C203.68 28.232 203.498 27.4373 203.498 26.552ZM210.714 26.584C210.714 25.976 210.586 25.448 210.33 25C210.085 24.552 209.76 24.2107 209.354 23.976C208.949 23.7413 208.512 23.624 208.042 23.624C207.573 23.624 207.136 23.7413 206.73 23.976C206.325 24.2 205.994 24.536 205.738 24.984C205.493 25.4213 205.37 25.944 205.37 26.552C205.37 27.16 205.493 27.6933 205.738 28.152C205.994 28.6107 206.325 28.9627 206.73 29.208C207.146 29.4427 207.584 29.56 208.042 29.56C208.512 29.56 208.949 29.4427 209.354 29.208C209.76 28.9733 210.085 28.632 210.33 28.184C210.586 27.7253 210.714 27.192 210.714 26.584ZM222.306 31.144C221.613 31.144 220.989 31.0213 220.434 30.776C219.89 30.52 219.458 30.1787 219.138 29.752C218.818 29.3147 218.648 28.8293 218.626 28.296H220.514C220.546 28.6693 220.722 28.984 221.042 29.24C221.373 29.4853 221.784 29.608 222.274 29.608C222.786 29.608 223.181 29.512 223.458 29.32C223.746 29.1173 223.89 28.8613 223.89 28.552C223.89 28.2213 223.73 27.976 223.41 27.816C223.101 27.656 222.605 27.48 221.922 27.288C221.261 27.1067 220.722 26.9307 220.306 26.76C219.89 26.5893 219.528 26.328 219.218 25.976C218.92 25.624 218.77 25.16 218.77 24.584C218.77 24.1147 218.909 23.688 219.186 23.304C219.464 22.9093 219.858 22.6 220.37 22.376C220.893 22.152 221.49 22.04 222.162 22.04C223.165 22.04 223.97 22.296 224.578 22.808C225.197 23.3093 225.528 23.9973 225.57 24.872H223.746C223.714 24.4773 223.554 24.1627 223.266 23.928C222.978 23.6933 222.589 23.576 222.098 23.576C221.618 23.576 221.25 23.6667 220.994 23.848C220.738 24.0293 220.61 24.2693 220.61 24.568C220.61 24.8027 220.696 25 220.866 25.16C221.037 25.32 221.245 25.448 221.49 25.544C221.736 25.6293 222.098 25.7413 222.578 25.88C223.218 26.0507 223.741 26.2267 224.146 26.408C224.562 26.5787 224.92 26.8347 225.218 27.176C225.517 27.5173 225.672 27.9707 225.682 28.536C225.682 29.0373 225.544 29.4853 225.266 29.88C224.989 30.2747 224.594 30.584 224.082 30.808C223.581 31.032 222.989 31.144 222.306 31.144ZM227.045 26.552C227.045 25.6667 227.226 24.8827 227.589 24.2C227.962 23.5173 228.464 22.9893 229.093 22.616C229.733 22.232 230.437 22.04 231.205 22.04C231.898 22.04 232.501 22.1787 233.013 22.456C233.536 22.7227 233.952 23.0587 234.261 23.464V22.184H236.101V31H234.261V29.688C233.952 30.104 233.53 30.4507 232.997 30.728C232.464 31.0053 231.856 31.144 231.173 31.144C230.416 31.144 229.722 30.952 229.093 30.568C228.464 30.1733 227.962 29.6293 227.589 28.936C227.226 28.232 227.045 27.4373 227.045 26.552ZM234.261 26.584C234.261 25.976 234.133 25.448 233.877 25C233.632 24.552 233.306 24.2107 232.901 23.976C232.496 23.7413 232.058 23.624 231.589 23.624C231.12 23.624 230.682 23.7413 230.277 23.976C229.872 24.2 229.541 24.536 229.285 24.984C229.04 25.4213 228.917 25.944 228.917 26.552C228.917 27.16 229.04 27.6933 229.285 28.152C229.541 28.6107 229.872 28.9627 230.277 29.208C230.693 29.4427 231.13 29.56 231.589 29.56C232.058 29.56 232.496 29.4427 232.901 29.208C233.306 28.9733 233.632 28.632 233.877 28.184C234.133 27.7253 234.261 27.192 234.261 26.584ZM240.321 19.16V31H238.497V19.16H240.321ZM242.108 26.552C242.108 25.6667 242.289 24.8827 242.652 24.2C243.025 23.5173 243.526 22.9893 244.156 22.616C244.796 22.232 245.5 22.04 246.268 22.04C246.961 22.04 247.564 22.1787 248.076 22.456C248.598 22.7227 249.014 23.0587 249.324 23.464V22.184H251.164V31H249.324V29.688C249.014 30.104 248.593 30.4507 248.06 30.728C247.526 31.0053 246.918 31.144 246.236 31.144C245.478 31.144 244.785 30.952 244.156 30.568C243.526 30.1733 243.025 29.6293 242.652 28.936C242.289 28.232 242.108 27.4373 242.108 26.552ZM249.324 26.584C249.324 25.976 249.196 25.448 248.94 25C248.694 24.552 248.369 24.2107 247.964 23.976C247.558 23.7413 247.121 23.624 246.652 23.624C246.182 23.624 245.745 23.7413 245.34 23.976C244.934 24.2 244.604 24.536 244.348 24.984C244.102 25.4213 243.98 25.944 243.98 26.552C243.98 27.16 244.102 27.6933 244.348 28.152C244.604 28.6107 244.934 28.9627 245.34 29.208C245.756 29.4427 246.193 29.56 246.652 29.56C247.121 29.56 247.558 29.4427 247.964 29.208C248.369 28.9733 248.694 28.632 248.94 28.184C249.196 27.7253 249.324 27.192 249.324 26.584Z" fill="#FAFAFA"/>
</svg>
