<svg width="363" height="50" viewBox="0 0 363 50" fill="none" xmlns="http://www.w3.org/2000/svg">
<path d="M0 8.00006C0 3.58178 3.58172 6.10352e-05 8 6.10352e-05H355C359.418 6.10352e-05 363 3.58178 363 8.00006V42.0001C363 46.4183 359.418 50.0001 355 50.0001H8C3.58173 50.0001 0 46.4183 0 42.0001V8.00006Z" fill="#3485FF"/>
<g clip-path="url(#clip0_286_1213)">
<path d="M141.167 32.5001V30.8334C141.167 29.9493 140.815 29.1015 140.19 28.4764C139.565 27.8513 138.717 27.5001 137.833 27.5001H131.167C130.283 27.5001 129.435 27.8513 128.81 28.4764C128.184 29.1015 127.833 29.9493 127.833 30.8334V32.5001" stroke="#FAFAFA" stroke-width="2" stroke-linecap="round" stroke-linejoin="round"/>
<path d="M134.5 24.1667C136.341 24.1667 137.833 22.6743 137.833 20.8334C137.833 18.9924 136.341 17.5001 134.5 17.5001C132.659 17.5001 131.167 18.9924 131.167 20.8334C131.167 22.6743 132.659 24.1667 134.5 24.1667Z" stroke="#FAFAFA" stroke-width="2" stroke-linecap="round" stroke-linejoin="round"/>
<path d="M146.167 32.5001V30.8334C146.166 30.0948 145.92 29.3774 145.468 28.7937C145.015 28.2099 144.382 27.793 143.667 27.6084" stroke="#FAFAFA" stroke-width="2" stroke-linecap="round" stroke-linejoin="round"/>
<path d="M140.333 17.6084C141.05 17.792 141.686 18.209 142.14 18.7937C142.593 19.3783 142.84 20.0974 142.84 20.8376C142.84 21.5777 142.593 22.2968 142.14 22.8815C141.686 23.4661 141.05 23.8831 140.333 24.0667" stroke="#FAFAFA" stroke-width="2" stroke-linecap="round" stroke-linejoin="round"/>
</g>
<path d="M157.592 25.4161C157.592 24.3281 157.843 23.3521 158.344 22.4881C158.856 21.6241 159.544 20.9521 160.408 20.4721C161.283 19.9814 162.237 19.7361 163.272 19.7361C164.456 19.7361 165.507 20.0294 166.424 20.6161C167.352 21.1921 168.024 22.0134 168.44 23.0801H166.248C165.96 22.4934 165.56 22.0561 165.048 21.7681C164.536 21.4801 163.944 21.3361 163.272 21.3361C162.536 21.3361 161.88 21.5014 161.304 21.8321C160.728 22.1627 160.275 22.6374 159.944 23.2561C159.624 23.8747 159.464 24.5947 159.464 25.4161C159.464 26.2374 159.624 26.9574 159.944 27.5761C160.275 28.1947 160.728 28.6747 161.304 29.0161C161.88 29.3467 162.536 29.5121 163.272 29.5121C163.944 29.5121 164.536 29.3681 165.048 29.0801C165.56 28.7921 165.96 28.3547 166.248 27.7681H168.44C168.024 28.8347 167.352 29.6561 166.424 30.2321C165.507 30.8081 164.456 31.0961 163.272 31.0961C162.227 31.0961 161.272 30.8561 160.408 30.3761C159.544 29.8854 158.856 29.2081 158.344 28.3441C157.843 27.4801 157.592 26.5041 157.592 25.4161ZM172.399 23.4641C172.666 23.0161 173.018 22.6694 173.455 22.4241C173.903 22.1681 174.431 22.0401 175.039 22.0401V23.9281H174.575C173.86 23.9281 173.316 24.1094 172.943 24.4721C172.58 24.8347 172.399 25.4641 172.399 26.3601V31.0001H170.575V22.1841H172.399V23.4641ZM177.644 21.0161C177.313 21.0161 177.036 20.9041 176.812 20.6801C176.588 20.4561 176.476 20.1787 176.476 19.8481C176.476 19.5174 176.588 19.2401 176.812 19.0161C177.036 18.7921 177.313 18.6801 177.644 18.6801C177.964 18.6801 178.236 18.7921 178.46 19.0161C178.684 19.2401 178.796 19.5174 178.796 19.8481C178.796 20.1787 178.684 20.4561 178.46 20.6801C178.236 20.9041 177.964 21.0161 177.644 21.0161ZM178.54 22.1841V31.0001H176.716V22.1841H178.54ZM180.326 26.5521C180.326 25.6667 180.508 24.8827 180.87 24.2001C181.244 23.5174 181.745 22.9894 182.374 22.6161C183.014 22.2321 183.718 22.0401 184.486 22.0401C185.18 22.0401 185.782 22.1787 186.294 22.4561C186.817 22.7227 187.233 23.0587 187.542 23.4641V22.1841H189.382V31.0001H187.542V29.6881C187.233 30.1041 186.812 30.4507 186.278 30.7281C185.745 31.0054 185.137 31.1441 184.454 31.1441C183.697 31.1441 183.004 30.9521 182.374 30.5681C181.745 30.1734 181.244 29.6294 180.87 28.9361C180.508 28.2321 180.326 27.4374 180.326 26.5521ZM187.542 26.5841C187.542 25.9761 187.414 25.4481 187.158 25.0001C186.913 24.5521 186.588 24.2107 186.182 23.9761C185.777 23.7414 185.34 23.6241 184.87 23.6241C184.401 23.6241 183.964 23.7414 183.558 23.9761C183.153 24.2001 182.822 24.5361 182.566 24.9841C182.321 25.4214 182.198 25.9441 182.198 26.5521C182.198 27.1601 182.321 27.6934 182.566 28.1521C182.822 28.6107 183.153 28.9627 183.558 29.2081C183.974 29.4427 184.412 29.5601 184.87 29.5601C185.34 29.5601 185.777 29.4427 186.182 29.2081C186.588 28.9734 186.913 28.6321 187.158 28.1841C187.414 27.7254 187.542 27.1921 187.542 26.5841ZM193.602 23.4641C193.869 23.0161 194.221 22.6694 194.658 22.4241C195.106 22.1681 195.634 22.0401 196.242 22.0401V23.9281H195.778C195.063 23.9281 194.519 24.1094 194.146 24.4721C193.783 24.8347 193.602 25.4641 193.602 26.3601V31.0001H191.778V22.1841H193.602V23.4641ZM205.275 31.1441C204.582 31.1441 203.958 31.0214 203.403 30.7761C202.859 30.5201 202.427 30.1787 202.107 29.7521C201.787 29.3147 201.616 28.8294 201.595 28.2961H203.483C203.515 28.6694 203.691 28.9841 204.011 29.2401C204.342 29.4854 204.752 29.6081 205.243 29.6081C205.755 29.6081 206.15 29.5121 206.427 29.3201C206.715 29.1174 206.859 28.8614 206.859 28.5521C206.859 28.2214 206.699 27.9761 206.379 27.8161C206.07 27.6561 205.574 27.4801 204.891 27.2881C204.23 27.1067 203.691 26.9307 203.275 26.7601C202.859 26.5894 202.496 26.3281 202.187 25.9761C201.888 25.6241 201.739 25.1601 201.739 24.5841C201.739 24.1147 201.878 23.6881 202.155 23.3041C202.432 22.9094 202.827 22.6001 203.339 22.3761C203.862 22.1521 204.459 22.0401 205.131 22.0401C206.134 22.0401 206.939 22.2961 207.547 22.8081C208.166 23.3094 208.496 23.9974 208.539 24.8721H206.715C206.683 24.4774 206.523 24.1627 206.235 23.9281C205.947 23.6934 205.558 23.5761 205.067 23.5761C204.587 23.5761 204.219 23.6667 203.963 23.8481C203.707 24.0294 203.579 24.2694 203.579 24.5681C203.579 24.8027 203.664 25.0001 203.835 25.1601C204.006 25.3201 204.214 25.4481 204.459 25.5441C204.704 25.6294 205.067 25.7414 205.547 25.8801C206.187 26.0507 206.71 26.2267 207.115 26.4081C207.531 26.5787 207.888 26.8347 208.187 27.1761C208.486 27.5174 208.64 27.9707 208.651 28.5361C208.651 29.0374 208.512 29.4854 208.235 29.8801C207.958 30.2747 207.563 30.5841 207.051 30.8081C206.55 31.0321 205.958 31.1441 205.275 31.1441ZM210.014 26.5521C210.014 25.6667 210.195 24.8827 210.558 24.2001C210.931 23.5174 211.433 22.9894 212.062 22.6161C212.702 22.2321 213.406 22.0401 214.174 22.0401C214.867 22.0401 215.47 22.1787 215.982 22.4561C216.505 22.7227 216.921 23.0587 217.23 23.4641V22.1841H219.07V31.0001H217.23V29.6881C216.921 30.1041 216.499 30.4507 215.966 30.7281C215.433 31.0054 214.825 31.1441 214.142 31.1441C213.385 31.1441 212.691 30.9521 212.062 30.5681C211.433 30.1734 210.931 29.6294 210.558 28.9361C210.195 28.2321 210.014 27.4374 210.014 26.5521ZM217.23 26.5841C217.23 25.9761 217.102 25.4481 216.846 25.0001C216.601 24.5521 216.275 24.2107 215.87 23.9761C215.465 23.7414 215.027 23.6241 214.558 23.6241C214.089 23.6241 213.651 23.7414 213.246 23.9761C212.841 24.2001 212.51 24.5361 212.254 24.9841C212.009 25.4214 211.886 25.9441 211.886 26.5521C211.886 27.1601 212.009 27.6934 212.254 28.1521C212.51 28.6107 212.841 28.9627 213.246 29.2081C213.662 29.4427 214.099 29.5601 214.558 29.5601C215.027 29.5601 215.465 29.4427 215.87 29.2081C216.275 28.9734 216.601 28.6321 216.846 28.1841C217.102 27.7254 217.23 27.1921 217.23 26.5841ZM223.29 19.1601V31.0001H221.466V19.1601H223.29ZM225.076 26.5521C225.076 25.6667 225.258 24.8827 225.62 24.2001C225.994 23.5174 226.495 22.9894 227.124 22.6161C227.764 22.2321 228.468 22.0401 229.236 22.0401C229.93 22.0401 230.532 22.1787 231.044 22.4561C231.567 22.7227 231.983 23.0587 232.292 23.4641V22.1841H234.132V31.0001H232.292V29.6881C231.983 30.1041 231.562 30.4507 231.028 30.7281C230.495 31.0054 229.887 31.1441 229.204 31.1441C228.447 31.1441 227.754 30.9521 227.124 30.5681C226.495 30.1734 225.994 29.6294 225.62 28.9361C225.258 28.2321 225.076 27.4374 225.076 26.5521ZM232.292 26.5841C232.292 25.9761 232.164 25.4481 231.908 25.0001C231.663 24.5521 231.338 24.2107 230.932 23.9761C230.527 23.7414 230.09 23.6241 229.62 23.6241C229.151 23.6241 228.714 23.7414 228.308 23.9761C227.903 24.2001 227.572 24.5361 227.316 24.9841C227.071 25.4214 226.948 25.9441 226.948 26.5521C226.948 27.1601 227.071 27.6934 227.316 28.1521C227.572 28.6107 227.903 28.9627 228.308 29.2081C228.724 29.4427 229.162 29.5601 229.62 29.5601C230.09 29.5601 230.527 29.4427 230.932 29.2081C231.338 28.9734 231.663 28.6321 231.908 28.1841C232.164 27.7254 232.292 27.1921 232.292 26.5841Z" fill="#FAFAFA"/>
<defs>
<clipPath id="clip0_286_1213">
<rect width="20" height="20" fill="white" transform="translate(127 15.0001)"/>
</clipPath>
</defs>
</svg>
